<svg xmlns="http://www.w3.org/2000/svg" viewBox="0 0 1024 1024">
	<path fill="#0a795b" d="M328.5 1022.944c-69.226-1.363-97.097-3.798-131.735-11.508-36.069-8.029-59.327-18.746-94.765-43.667-6.558-4.612-43.791-42.237-48.755-49.269C39.24 898.663 30.413 882.649 22.65 863 12.2 836.544 7.327 812.044 2.465 761.5 1.042 746.711.765 720.762.336 562-.188 367.762.73 276.155 3.45 251.5c5.385-48.812 11.12-73.168 23.87-101.368 6.402-14.162 16.26-31.6 21.559-38.132 2.007-2.475 4.873-6.3 6.368-8.5C59.334 97.488 76.265 79.38 87 69.54c40.894-37.484 87.46-57.062 152.185-63.985C275.29 1.694 313.412.835 472 .31c276.443-.915 326.464 1.62 380.126 19.26 18.163 5.971 30.536 11.676 47.254 21.788 15.037 9.095 21.8 14.253 36.898 28.141 26.115 24.022 42.286 44.659 55.153 70.387 19.21 38.41 27.066 73.874 30.705 138.613.686 12.193 1.121 95.668 1.216 233 .155 224.385.156 224.33-4.346 272.432-3.46 36.977-11.538 67.097-25.943 96.735-9.735 20.028-20.775 36.464-34.89 51.94-10.186 11.167-31.824 32.062-36.653 35.393-25.605 17.663-45.442 28.668-61.17 33.935-13.043 4.368-37.961 10.653-53.35 13.456-23.755 4.327-52.216 6.18-117 7.62-47.288 1.05-307.198 1.002-361.5-.067z" />
	<path fill="#5dbf86" d="M783.284 82.064H240.716c-43.484 0-78.716 35.232-78.716 78.716v702.44c0 43.484 35.232 78.716 78.716 78.716h542.568c43.484 0 78.716-35.232 78.716-78.716V160.78c0-43.484-35.232-78.716-78.716-78.716ZM537.649 216.3c0-8.801 7.129-15.957 15.957-15.957h220.219c8.8 0 15.957 7.128 15.957 15.957v33.504c0 8.801-7.129 15.957-15.957 15.957H553.606a15.957 15.957 0 0 1-15.957-15.957zm0 138.678c0-8.8 7.129-15.957 15.957-15.957h220.219c8.8 0 15.957 7.129 15.957 15.957v33.504c0 8.802-7.129 15.958-15.957 15.958H553.606a15.957 15.957 0 0 1-15.957-15.958ZM266.16 223.895c0-23.414 18.974-42.387 42.388-42.387h89.629c23.414 0 42.387 18.973 42.387 42.387V359.53c0 23.415-18.973 42.388-42.387 42.388h-89.629c-23.414 0-42.387-18.973-42.387-42.388zm526.42 580.596c0 8.802-7.13 15.958-15.958 15.958H284.913a15.957 15.957 0 0 1-15.957-15.958v-33.504c0-8.801 7.129-15.957 15.957-15.957h491.708c8.802 0 15.958 7.129 15.958 15.957zm0-138.678c0 8.801-7.13 15.957-15.958 15.957H284.913a15.957 15.957 0 0 1-15.957-15.957v-33.504c0-8.801 7.129-15.957 15.957-15.957h491.708c8.802 0 15.958 7.128 15.958 15.957zm0-138.678c0 8.8-7.13 15.957-15.958 15.957H284.913a15.957 15.957 0 0 1-15.957-15.957V493.63c0-8.8 7.129-15.957 15.957-15.957h491.708c8.802 0 15.958 7.129 15.958 15.957z" />
	<path fill="#e2e2e2" d="M559.622 180.841c-2.26 4.597-10.14 13.74-11.27 18.048-3.73 14.29 2.495 20.858 12.137 26.716 45.683 27.847 68.092 11.192 91.92 79.126 24.089 68.723 30.604 201.992 25.507 277.177-1.182 17.365-5.516 29.79-13.345 44.16l-20.228 12.584-3.862-1.524c-5.438-8.748 20.623-33.993 7.461-42.531-5.123 5.333-6.594 12.478-14.764 11.822-11.322-8.512-2.285-25.22.29-36.464 1.575-6.882 6.462-24.615 6.488-30.342.053-18.783-11.559-61.84-15.63-82.462-2.181-11.007-3.521-23.144-5.806-34.099-3.074-14.737-7.776-28.818-9.904-43.845l-3.021-1.47c-3.81 8.09-5.622 16.26-6.226 25.586-3.652 58.636 4.176 117.954 8.59 175.932 6.935 91.184 13.976 182.526 19.703 273.946 1.208 19.361.13 42.531 2.548 61.42 2.6 20.333 29.239 21.699 23.958 47.812-1.05 5.201-5.411 10.665-9.982 11.532-11.14 2.102-45.763 1.445-57.742.132-3.39-.368-9.326-2.05-11.953-4.414-.42-.394-7.146-8.722-7.435-9.247-3.415-6.2-5.543-26.06-6.646-34.414-11.953-90.317-20.307-180.398-35.07-270.268-1.393-8.406-4.86-36.988-10.036-40.798-6.016-4.413-8.827 5.202-10.482 11.139-4.834 17.443-7.776 47.155-10.718 66.332-12.636 82.384-19.335 166.08-31.314 248.385-1.918 13.188-5.15 27.636-16.472 33.127l-67.252-.21c-8.248-4.046-10.77-11.953-9.378-22.304 2.26-16.839 21.095-17.81 23.118-38.354 4.65-47.26 5.359-97.358 8.748-144.88 6.567-91.999 16.655-183.472 22.12-275.444 1.707-28.897 6.908-83.25-1.498-109.599-.972-3.021-2.653-7.25-5.885-6.91-3.257 19.887-8.932 38.907-12.925 58.583-7.276 35.833-13.24 72.611-18.783 108.733 2.995 19.046 10.85 38.013 10.64 57.374-6.2 7.697-14.449 1.734-17.654-6.41-15.999 10.43 9.405 27.19 5.464 42.4-2.653.604-6.2 1.261-8.748 0-.551-.262-9.115-6.357-10.219-7.224-11.98-9.562-18.415-41.665-19.02-57.9-2.679-72.61 3.363-157.227 17.496-228.183 8.065-40.535 17.102-77.155 51.096-95.86 16.577-9.142 38.985-14.396 54.327-26.06 20.438-15.526 0-32.233-7.198-48.652-28.661-65.255 6.83-144.854 73.267-119.582 44.187 16.813 45.868 86.113 25.588 127.358z" />
</svg>