<svg xmlns="http://www.w3.org/2000/svg" xmlns:xlink="http://www.w3.org/1999/xlink" viewBox="0 0 1024 1024">
	<defs>
		<linearGradient id="a" x1="1024" x2="0" y1="0" y2="1024" gradientUnits="userSpaceOnUse">
			<stop offset="0" stop-color="#52bc7e" />
			<stop offset="1" stop-color="#0a795b" />
		</linearGradient>
	</defs>
	<path fill="url(#a)" d="M328.56 1023.172c-69.28-1.363-97.172-3.8-131.837-11.512-36.097-8.032-59.373-18.753-94.839-43.683-6.563-4.614-43.825-42.253-48.793-49.287-14.016-19.845-22.85-35.865-30.619-55.52-10.458-26.467-15.335-50.976-20.2-101.538C.846 746.837.57 720.879.14 562.058c-.525-194.31.394-285.95 3.116-310.614 5.39-48.83 11.129-73.195 23.889-101.406 6.407-14.167 16.273-31.611 21.576-38.146 2.008-2.475 4.877-6.302 6.373-8.503 4.09-6.014 21.034-24.129 31.777-33.972C127.797 31.919 174.4 12.334 239.175 5.408 275.31 1.546 313.461.686 472.173.161c276.659-.915 326.719 1.62 380.423 19.267 18.177 5.974 30.56 11.68 47.29 21.796 15.05 9.099 21.817 14.259 36.927 28.152 26.136 24.03 42.32 44.675 55.196 70.413 19.225 38.424 27.087 73.9 30.73 138.664.686 12.197 1.121 95.703 1.216 233.086.155 224.467.156 224.412-4.35 272.532-3.462 36.99-11.546 67.122-25.962 96.77-9.743 20.036-20.792 36.478-34.918 51.96-10.194 11.17-31.848 32.074-36.681 35.406-25.625 17.67-45.478 28.678-61.218 33.947-13.053 4.37-37.99 10.657-53.392 13.461-23.773 4.329-52.256 6.182-117.09 7.623-47.326 1.05-307.439 1.002-361.783-.067z" />
	<path fill="#2e1f20" d="M129.981 179.22h292.512v230.504H129.981Z" />
	<path fill="#faf6ed" d="M657.136 104.552H175.361c-38.612 0-69.896 31.284-69.896 69.896v623.734c0 38.613 31.284 69.897 69.896 69.897h481.775c38.612 0 69.896-31.284 69.896-69.897V174.448c0-38.612-31.284-69.896-69.896-69.896zm-218.16 119.196c0-7.815 5.745-14.169 12.805-14.169h176.944c18.746-.56 11.491 31.893 12.806 43.92 0 7.814-5.746 14.169-12.806 14.169H451.781c-18.746.56-11.49-31.893-12.806-43.92zm0 123.116c0-7.815 5.72-14.17 12.757-14.17h176.31c18.673-.56 11.443 31.893 12.757 43.92 0 7.815-5.72 14.17-12.757 14.17h-176.31c-18.674.56-11.443-31.893-12.758-43.92zm-219.014-12.83c26.561-14.145 59.112-14.291 31.942-50.64-38.198-132.488 129.3-94.582 59.379 17.505-4.285 38.32 61.935 7.377 75.788 89.884H187.023c5.185-24.126 12.221-45.331 32.94-56.75zM665.365 746.01c0 7.815-6.525 14.169-14.559 14.169H201.825c-8.034 0-14.559-6.33-14.559-14.17 2.07-12.05-7.133-44.43 14.559-43.919h448.981c21.278-.56 13.05 31.893 14.56 43.92zm0-123.116c0 7.815-6.5 14.17-14.51 14.17H203.091c-8.01 0-14.51-6.33-14.51-14.17 2.07-12.05-7.109-44.43 14.51-43.92h447.764c21.23-.56 13.025 31.893 14.51 43.92zm0-123.14c0 7.815-6.5 14.17-14.534 14.17H202.385c-8.034 0-14.534-6.33-14.534-14.17 2.069-12.05-7.134-44.43 14.534-43.92H650.83c21.253-.56 13.049 31.893 14.534 43.92z" />
	<path fill="none" stroke="#231f20" stroke-width="25" d="M629.188 136.542H201.216c-34.303 0-62.105 28.533-62.105 63.737v568.81c0 35.204 27.802 63.737 62.105 63.737h427.996c34.303 0 62.105-28.533 62.105-63.737V200.303c0-35.203-27.802-63.736-62.105-63.736z" />
	<path fill="#faf6ed" d="M416.261 525.877v228.556a72.796 72.796 0 0 0 36.397 63.055l197.93 114.279a72.852 72.852 0 0 0 72.817 0l197.93-114.279a72.825 72.825 0 0 0 36.396-63.055V525.877a72.796 72.796 0 0 0-36.396-63.055l-197.93-114.278a72.852 72.852 0 0 0-72.818 0l-197.93 114.278a72.825 72.825 0 0 0-36.396 63.055z" />
	<path fill="#2e1f20" d="M444.745 542.335v195.64a72.796 72.796 0 0 0 36.397 63.056l169.421 97.82a72.852 72.852 0 0 0 72.818 0l169.42-97.82a72.825 72.825 0 0 0 36.397-63.055V542.335a72.796 72.796 0 0 0-36.396-63.055L723.38 381.459a72.852 72.852 0 0 0-72.818 0l-169.421 97.82a72.825 72.825 0 0 0-36.397 63.056z" />
	<path fill="#afafa7" d="m650.758 634.531-162.556-93.876c-14.266-8.253-25.855-1.485-25.855 15.143V744.84c0 16.604 11.589 36.713 25.855 44.967l162.556 93.876c14.266 8.253 25.855 1.485 25.855-15.143V679.498c0-16.604-11.589-36.713-25.855-44.967zm-136.603 5.795c-11.638-6.72-21.084-23.177-21.084-36.714 0-13.536 9.446-19.062 21.084-12.343 11.637 6.72 21.083 23.177 21.083 36.713 0 13.537-9.446 19.063-21.083 12.344zm110.699 192.72c-11.637-6.72-21.083-23.178-21.083-36.714 0-13.536 9.446-19.062 21.083-12.343 11.637 6.72 21.083 23.177 21.083 36.713 0 13.536-9.446 19.063-21.083 12.343z" />
	<path fill="#eae6d9" d="M723.186 634.556c-14.267 8.253-25.855 28.362-25.855 44.966v189.044c0 16.603 11.588 23.323 25.855 15.143l162.604-93.926c14.267-8.253 25.855-28.362 25.855-44.966V555.773c-.049-16.555-11.588-23.323-25.855-15.07M749.138 833.045c-11.637 6.72-21.083 1.193-21.083-12.343-.049-13.56 9.397-29.994 21.083-36.713 11.637-6.72 21.084-1.193 21.084 12.343s-9.447 29.994-21.084 36.713zm55.362-96.384c-11.637 6.72-21.083 1.193-21.083-12.343s9.446-29.994 21.083-36.713c11.637-6.72 21.083-1.193 21.083 12.343s-9.446 29.994-21.083 36.713zm55.338-96.311c-11.637 6.72-21.084 1.193-21.084-12.343s9.447-29.994 21.084-36.713c11.637-6.72 21.083-1.193 21.083 12.343s-9.446 29.994-21.083 36.713z" />
	<path fill="#faf6ed" d="m502.323 523.077 163.7 94.534c14.363 8.302 37.589 8.35 51.856.098l162.555-93.877c14.267-8.253 14.218-21.643-.17-29.945l-163.7-94.534c-14.364-8.302-37.59-8.35-51.856-.097l-162.556 93.876c-14.266 8.253-14.218 21.643.17 29.945zm167.692-26.902c11.637-6.719 30.651-6.67 42.337.098 11.686 6.768 11.808 17.748.17 24.467-11.637 6.72-30.602 6.67-42.336-.097-11.76-6.768-11.808-17.748-.17-24.468z" />
</svg>