<!--
  - Copyright ©1998-2023 by Richard A. Wilkes. All rights reserved.
  -
  - This Source Code Form is subject to the terms of the Mozilla Public
  - License, version 2.0. If a copy of the MPL was not distributed with
  - this file, You can obtain one at http://mozilla.org/MPL/2.0/.
  -
  - This Source Code Form is "Incompatible With Secondary Licenses", as
  - defined by the Mozilla Public License, version 2.0.
  -->

<svg xmlns="http://www.w3.org/2000/svg" viewBox="0 0 512 512">
    <path d="M256 0C114.6 0 0 114.6 0 256s114.6 256 256 256 256-114.6 256-256S397.4 0 256 0zm0 40c30.93 0 56 25.07 56 56 0 30.9-25.07 56-56 56s-56-25.1-56-56c0-30.93 25.07-56 56-56zm0 160c30.93 0 56 25.1 56 56s-25.07 56-56 56-56-25.1-56-56 25.07-56 56-56zm0 160c30.93 0 56 25.1 56 56s-25.07 56-56 56-56-25.1-56-56 25.07-56 56-56z"/>
</svg>
