<svg xmlns="http://www.w3.org/2000/svg" viewBox="0 0 1024 1024">
	<path
		d="M519.434 44.402c59.22 7.69 105.46 72.06 105.46 149.74 0 43.02-14.76 81.44-37.48 108.82 123.16 23.15 132.47 230.51 132.47 376.08h-85.4l-22.66 303.83h-217l-20.05-303.83h-81.05c0-145.97-2.93-356.98 131.59-377.82-21.74-27.25-35.73-65.12-35.73-107.08 0-82.86 52.8-149.73 117.66-149.73 4.05 0 8.25-.53 12.2 0l-.01-.01zm-182.06-.93c-64.85 0-117.77 66.41-117.77 149.27 0 41.97 14.4 80.04 36.15 107.28-134.53 20.85-131.77 231.85-131.77 377.83h80.46l20.99 304.36h125.94l-19.82-304.36h-81.63c0-145.98-2.76-356.98 131.77-377.83-21.74-27.24-36.15-65.31-36.15-107.28 0-53.17 22.09-99.38 54.81-125.94-15.1-12.44-31.38-20.88-50.15-23.33-3.94-.52-8.77 0-12.83 0zm275.88 23.33c32.55 26.82 54.81 72.88 54.81 125.94 0 43.03-14.6 82.24-37.32 109.62 123.16 23.15 131.78 229.92 131.77 375.49h-85.12l-22.16 304.36h125.94l22.16-304.36h86.29c0-145.57-9.78-352.34-132.94-375.49 22.72-27.38 37.32-66.59 37.32-109.62 0-77.68-45.73-141.57-104.95-149.27-3.95-.52-8.78 0-12.83 0-23.23 0-44.71 8.5-62.97 23.33z" />
</svg>
