<svg xmlns="http://www.w3.org/2000/svg" viewBox="0 0 448 512">
	<path
		d="M378.1 198.6 249.5 341.4c-6.1 6.7-14.7 10.6-23.8 10.6h-3.5c-9.1 0-17.7-3.8-23.8-10.6L69.9 198.6c-3.8-4.2-5.9-9.8-5.9-15.5 0-12.7 10.4-23.1 23.1-23.1H160V32c0-17.7 14.3-32 32-32h64c17.7 0 32 14.3 32 32v128h72.9c12.8 0 23.1 10.4 23.1 23.1 0 5.7-2.1 11.2-5.9 15.5zM64 352v64c0 17.7 14.3 32 32 32h256c17.7 0 32-14.3 32-32v-64c0-17.7 14.3-32 32-32s32 14.3 32 32v64c0 53-43 96-96 96H96c-53 0-96-43-96-96v-64c0-17.7 14.3-32 32-32s32 14.3 32 32z" />
</svg>
