<!--
  - Copyright ©1998-2023 by Richard A. Wilkes. All rights reserved.
  -
  - This Source Code Form is subject to the terms of the Mozilla Public
  - License, version 2.0. If a copy of the MPL was not distributed with
  - this file, You can obtain one at http://mozilla.org/MPL/2.0/.
  -
  - This Source Code Form is "Incompatible With Secondary Licenses", as
  - defined by the Mozilla Public License, version 2.0.
  -->

<svg xmlns="http://www.w3.org/2000/svg" viewBox="0 0 512 512">
    <path d="M512 96.03v319.9c0 17.67-14.33 31.1-31.1 31.1-18.6.07-32.9-13.43-32.9-31.93v-131L276.5 440.6c-20.6 17.1-52.5 2.7-52.5-25.5v-131L52.5 440.6C31.88 457.7 0 443.3 0 415.1V96.03c0-27.37 31.88-41.74 52.5-24.62L224 226.8V96.03c0-27.37 31.88-41.74 52.5-24.62L448 226.8V96.03c0-17.67 14.33-31.1 31.1-31.1 18.6-.9 32.9 13.43 32.9 31.1z"/>
</svg>
