<svg xmlns="http://www.w3.org/2000/svg" viewBox="0 0 512 512">
	<path
		d="m323.658 263.766 75.435-75.435c8.333-8.333 8.331-21.843-.004-30.173L353.82 112.91c-8.333-8.329-21.839-8.326-30.169.006l-75.152 75.173c-.079.077-.165.142-.243.22L6.251 430.334c-8.331 8.331-8.33 21.838.001 30.169L51.5 505.752c8.331 8.331 21.839 8.331 30.17 0l241.966-241.966c.007-.008.015-.013.022-.02zm15.086-105.6 15.09 15.083-45.24 45.24-15.077-15.084 45.227-45.239zM66.585 460.497l-15.079-15.079 211.808-211.827 15.088 15.088L66.585 460.497zm424.078-311.164h-42.667c-11.782 0-21.333 9.551-21.333 21.333 0 11.782 9.551 21.333 21.333 21.333h42.667c11.782 0 21.333-9.551 21.333-21.333.001-11.781-9.55-21.333-21.333-21.333zm-149.333-64c11.782 0 21.333-9.551 21.333-21.333V21.333C362.663 9.551 353.112 0 341.33 0c-11.782 0-21.333 9.551-21.333 21.333V64c0 11.782 9.551 21.333 21.333 21.333zm0 192c-11.782 0-21.333 9.551-21.333 21.333V320c0 11.782 9.551 21.333 21.333 21.333 11.782 0 21.333-9.551 21.333-21.333v-21.333c0-11.782-9.551-21.334-21.333-21.334zm-90.515-167.012c8.331 8.331 21.839 8.331 30.17 0 8.331-8.331 8.331-21.839 0-30.17L250.82 49.986c-8.331-8.331-21.839-8.331-30.17 0-8.331 8.331-8.331 21.839 0 30.17l30.165 30.165zm181.024 120.685c-8.331-8.331-21.839-8.331-30.17 0-8.331 8.331-8.331 21.839 0 30.17l30.165 30.165c8.331 8.331 21.839 8.331 30.17 0s8.331-21.839 0-30.17l-30.165-30.165zm.006-120.685 30.165-30.165c8.331-8.331 8.331-21.839 0-30.17-8.331-8.331-21.839-8.331-30.17 0l-30.165 30.165c-8.331 8.331-8.331 21.839 0 30.17s21.839 8.331 30.17 0z" />
</svg>