<!--
  - Copyright ©1998-2023 by Richard A. Wilkes. All rights reserved.
  -
  - This Source Code Form is subject to the terms of the Mozilla Public
  - License, version 2.0. If a copy of the MPL was not distributed with
  - this file, You can obtain one at http://mozilla.org/MPL/2.0/.
  -
  - This Source Code Form is "Incompatible With Secondary Licenses", as
  - defined by the Mozilla Public License, version 2.0.
  -->

<svg xmlns="http://www.w3.org/2000/svg" viewBox="0 0 448 512">
    <path d="M0 96c0-17.67 14.33-32 32-32h384c17.7 0 32 14.33 32 32 0 17.7-14.3 32-32 32H32c-17.67 0-32-14.3-32-32zm0 160c0-17.7 14.33-32 32-32h384c17.7 0 32 14.3 32 32s-14.3 32-32 32H32c-17.67 0-32-14.3-32-32zm416 192H32c-17.67 0-32-14.3-32-32s14.33-32 32-32h384c17.7 0 32 14.3 32 32s-14.3 32-32 32z"/>
</svg>
