<!--
  - Copyright ©1998-2023 by Richard A. Wilkes. All rights reserved.
  -
  - This Source Code Form is subject to the terms of the Mozilla Public
  - License, version 2.0. If a copy of the MPL was not distributed with
  - this file, You can obtain one at http://mozilla.org/MPL/2.0/.
  -
  - This Source Code Form is "Incompatible With Secondary Licenses", as
  - defined by the Mozilla Public License, version 2.0.
  -->

<svg xmlns="http://www.w3.org/2000/svg" viewBox="0 0 512 512">
    <path d="M512 256c0 141.4-114.6 256-256 256S0 397.4 0 256 114.6 0 256 0s256 114.6 256 256zM99.5 144.8C77.15 176.1 64 214.5 64 256c0 106 85.1 192 192 192 41.5 0 79.9-13.1 111.2-35.5L99.5 144.8zM448 256c0-106.9-86-192-192-192-41.5 0-79.9 13.15-111.2 35.5l267.7 267.7C434.9 335.9 448 297.5 448 256z"/>
</svg>
