<svg xmlns="http://www.w3.org/2000/svg" viewBox="0 0 512 512">
	<path
		d="M455.156 32.043H57.25c-31.353 0-56.844 28.7-56.844 64v320c0 35.3 25.491 64 56.844 64h397.907c31.353 0 56.844-28.7 56.844-64v-320c0-35.3-25.49-64-56.844-64ZM381.345 425.6c-3.8 8.7-12.5 14.4-22 14.4h-208c-9.5 0-18.2-5.7-22-14.4-3.8-8.7-2.1-18.9 4.4-25.9l104-112c4.6-4.9 10.9-7.7 17.6-7.7s13.1 2.8 17.6 7.7l104 112c6.5 7 8.2 17.2 4.4 25.9Zm9.317-185.557H120.027c-16.07 0-28.997-10.7-28.997-24s12.928-24 28.997-24h270.635c16.07 0 28.997 10.7 28.997 24s-12.928 24-28.997 24Zm0-96H120.027c-16.07 0-28.997-10.7-28.997-24s12.928-24 28.997-24h270.635c16.07 0 28.997 10.7 28.997 24s-12.928 24-28.997 24Z" />
</svg>
