<svg xmlns="http://www.w3.org/2000/svg" viewBox="0 0 512 512">
	<path
		d="M57.379 31.926C26.435 31.926.406 60.324.406 96.043v320c0 35.3 25.491 64 56.844 64h397.906c30.944 0 56.973-28.399 56.973-64.117v-320c0-35.3-25.49-64-56.844-64H57.38zm62.648 64.117h270.635c16.07 0 28.996 10.7 28.996 24 0 13.209-12.804 23.883-28.867 23.883H120.154c-16.07 0-28.996-10.7-28.996-24 0-13.21 12.805-23.883 28.87-23.883zm0 96h270.635c16.07 0 28.996 10.7 28.996 24 0 13.209-12.804 23.883-28.867 23.883H120.154c-16.07 0-28.996-10.7-28.996-24 0-13.21 12.805-23.883 28.87-23.883zm133.889 98.012 70.711 70.71-70.711 70.712-70.71-70.711 70.71-70.711z" />
</svg>