<svg xmlns="http://www.w3.org/2000/svg" viewBox="0 0 512 512">
	<path
		d="M455.156 32.043H57.25c-31.353 0-56.844 28.7-56.844 64v320c0 35.3 25.491 64 56.844 64h397.907c31.353 0 56.844-28.7 56.844-64v-320c0-35.3-25.49-64-56.844-64ZM376.945 320.3l-104 112c-4.5 4.9-10.9 7.7-17.6 7.7s-13-2.8-17.6-7.7l-104-112c-6.5-7-8.2-17.2-4.4-25.9 3.8-8.7 12.5-14.4 22-14.4h208c9.5 0 18.2 5.7 22 14.4 3.8 8.7 2.1 18.9-4.4 25.9Zm13.717-80.257H120.027c-16.07 0-28.997-10.7-28.997-24s12.928-24 28.997-24h270.635c16.07 0 28.997 10.7 28.997 24s-12.928 24-28.997 24Zm0-96H120.027c-16.07 0-28.997-10.7-28.997-24s12.928-24 28.997-24h270.635c16.07 0 28.997 10.7 28.997 24s-12.928 24-28.997 24Z" />
</svg>
