<!--
  - Copyright ©1998-2023 by Richard A. Wilkes. All rights reserved.
  -
  - This Source Code Form is subject to the terms of the Mozilla Public
  - License, version 2.0. If a copy of the MPL was not distributed with
  - this file, You can obtain one at http://mozilla.org/MPL/2.0/.
  -
  - This Source Code Form is "Incompatible With Secondary Licenses", as
  - defined by the Mozilla Public License, version 2.0.
  -->

<svg xmlns="http://www.w3.org/2000/svg" viewBox="0 0 576 512">
    <path d="M0 96c0-35.35 28.65-64 64-64h448c35.3 0 64 28.65 64 64v320c0 35.3-28.7 64-64 64H64c-35.35 0-64-28.7-64-64V96zm160 160c0-17.7-14.3-32-32-32s-32 14.3-32 32 14.3 32 32 32 32-14.3 32-32zm0-96c0-17.7-14.3-32-32-32s-32 14.3-32 32 14.3 32 32 32 32-14.3 32-32zm0 192c0-17.7-14.3-32-32-32s-32 14.3-32 32 14.3 32 32 32 32-14.3 32-32zm64-216c-13.3 0-24 10.7-24 24s10.7 24 24 24h224c13.3 0 24-10.7 24-24s-10.7-24-24-24H224zm0 96c-13.3 0-24 10.7-24 24s10.7 24 24 24h224c13.3 0 24-10.7 24-24s-10.7-24-24-24H224zm0 96c-13.3 0-24 10.7-24 24s10.7 24 24 24h224c13.3 0 24-10.7 24-24s-10.7-24-24-24H224z"/>
</svg>
