<svg xmlns="http://www.w3.org/2000/svg" viewBox="0 0 512 512">
    <path d="M256.099 479.928c-62.44 0-124.878.034-187.317-.029-12.104-.012-23.843-1.845-34.655-7.88C12.216 459.785.427 440.785.322 416.122-.136 309.442-.044 202.757.218 96.073c.09-36.505 29.137-63.888 67.032-63.965 64.661-.131 129.323-.037 193.984-.037 60.661 0 121.323-.034 181.984.03 12.103.013 23.843 1.845 34.655 7.88 21.912 12.232 33.699 31.234 33.805 55.895.458 106.682.366 213.367.103 320.05-.09 36.503-29.14 63.886-67.032 63.966-62.883.132-125.767.036-188.65.036ZM447.975 96.18H224.18v319.524h223.795V96.179Zm-335.608 47.934c7.543 0 15.092.192 22.628-.04 14.772-.457 25.016-10.3 25.15-23.874.137-13.893-10.197-24.108-25.287-24.384a1215.39 1215.39 0 0 0-45.922.007c-14.773.288-25.015 10.273-25.15 23.848-.136 13.893 10.199 23.98 25.288 24.407 7.758.22 15.528.039 23.293.036Zm-.539 96.052c7.543 0 15.09.14 22.629-.03 15.178-.342 25.617-10.186 25.688-24.016.07-13.84-10.337-24.005-25.413-24.264-15.082-.26-30.174-.23-45.257-.01-15.178.222-25.617 10.168-25.688 23.998-.072 14.127 10.484 24.025 26.078 24.302 7.319.13 14.642.022 21.963.02Zm-.285 96.044c7.765 0 15.535.179 23.294-.038 15.085-.422 25.433-10.505 25.308-24.387-.123-13.584-10.353-23.576-25.129-23.869-15.302-.302-30.618-.285-45.921-.009-15.086.272-25.434 10.481-25.308 24.364.123 13.584 10.355 23.433 25.128 23.894 7.536.235 15.085.041 22.628.045Z"/>
</svg>
