<!--
  - Copyright ©1998-2023 by Richard A. Wilkes. All rights reserved.
  -
  - This Source Code Form is subject to the terms of the Mozilla Public
  - License, version 2.0. If a copy of the MPL was not distributed with
  - this file, You can obtain one at http://mozilla.org/MPL/2.0/.
  -
  - This Source Code Form is "Incompatible With Secondary Licenses", as
  - defined by the Mozilla Public License, version 2.0.
  -->

<svg xmlns="http://www.w3.org/2000/svg" viewBox="0 0 512 512">
    <path d="M312 201.8c0-17.4 9.2-33.2 19.9-47C344.5 138.5 352 118.1 352 96c0-53-43-96-96-96s-96 43-96 96c0 22.1 7.5 42.5 20.1 58.8 10.7 13.8 19.9 29.6 19.9 47 0 29.9-24.3 54.2-54.2 54.2H112C50.1 256 0 306.1 0 368c0 20.9 13.4 38.7 32 45.3V464c0 26.5 21.5 48 48 48h352c26.5 0 48-21.5 48-48v-50.7c18.6-6.6 32-24.4 32-45.3 0-61.9-50.1-112-112-112h-33.8c-29.9 0-54.2-24.3-54.2-54.2zM416 416v32H96v-32h320z"/>
</svg>
