<svg xmlns="http://www.w3.org/2000/svg" xml:space="preserve" viewBox="0 0 1024 1024">
	<path fill="#b1cddb"
		d="M312.91 1022.918c-61.292-2.652-72.83-3.46-90.89-6.37-21.137-3.405-43.633-8.83-54.297-13.095-3.896-1.557-7.503-2.83-8.017-2.828-2.023.01-31.506-14.302-34.454-16.721-.662-.544-5.212-3.581-10.111-6.75-4.899-3.168-9.612-6.608-10.473-7.644-.861-1.036-2.106-1.884-2.766-1.884-.66 0-1.79-.724-2.512-1.608-.72-.885-6.213-5.947-12.206-11.25-10.907-9.65-34.55-35.342-34.55-37.544 0-.643-.85-1.875-1.89-2.736-3.5-2.902-12.596-17.801-19.725-32.314C13.54 846.59 6.99 817.5 1.56 751.345c-2.079-25.322-2.079-453.207 0-478.529 5.43-66.155 11.98-95.244 29.46-130.83 7.129-14.511 16.224-29.411 19.726-32.313 1.04-.861 1.89-2.065 1.89-2.675 0-1.697 18.802-23.048 27.312-31.015 12.93-12.106 21.335-19.448 22.264-19.448.49 0 1.596-.847 2.457-1.883.861-1.036 5.574-4.476 10.473-7.645 4.899-3.169 9.45-6.206 10.111-6.75 1.576-1.293 15.928-8.667 24.175-12.42C179.365 14.212 221.155 5.39 265.09 3.42c12.667-.568 35.515-1.578 50.771-2.244C351.628-.385 672.414-.395 707.75 1.164c69.86 3.083 75.05 3.458 96.76 6.995 11.993 1.955 25.803 4.666 30.69 6.026 12.848 3.575 33.346 10.532 37.338 12.671 1.23.66 6.63 3.36 11.998 6.003 10.756 5.293 31.805 18.589 34.352 21.699.891 1.087 2.12 1.977 2.732 1.977.61 0 2.538 1.323 4.281 2.94 24.717 22.914 39.058 37.971 46.593 48.92 11.663 16.947 12.71 18.7 20.522 34.34 12.847 25.718 22.648 60.122 25.306 88.829.6 6.482 1.968 20.803 3.039 31.823 1.703 17.533 2.007 46.401 2.437 231.014.54 232.402.443 237.225-6.094 304.679-.744 7.677-6.303 33.13-9.781 44.789-3.843 12.88-8.726 25.184-14.907 37.557-7.856 15.729-8.26 16.404-20.506 34.34-4.803 7.034-15.882 19.252-29.154 32.153-18.477 17.96-20.405 19.707-21.737 19.707-.61 0-1.84.89-2.73 1.978-2.548 3.11-23.597 16.405-34.353 21.698-5.369 2.642-10.768 5.344-11.998 6.003-9.707 5.203-48.166 15.624-70.948 19.224-19.662 3.107-26.468 3.572-94.43 6.456-32.806 1.392-361.824 1.336-394.25-.067z" />
	<path
		d="M664.084 677.375c-4.055-2.243-5.159-4.85-5.835-13.772-.654-8.64.467-7.497-11.434-11.665-2.917-1.022-7.615-3.01-10.438-4.417l-5.134-2.56-5.49 5.185c-9.956 9.402-12.846 8.675-30.397-7.643-17.194-15.985-16.976-15.707-16.976-21.752 0-4.722.455-5.65 5.443-11.1l5.443-5.947-4.22-9.235c-2.32-5.08-4.801-10.724-5.514-12.542-1.238-3.158-1.614-3.329-8.394-3.813-8.271-.591-13.055-2.727-14.833-6.624-2.044-4.48-1.724-41.101.394-45.193 2.126-4.103 7.24-6.22 15.027-6.22h6.147l4.762-10.745c2.62-5.91 5.186-11.79 5.702-13.067.797-1.972.127-3.081-4.443-7.35-10.396-9.71-9.214-13.49 10.237-32.735 13.973-13.825 14.858-14.502 18.947-14.502 3.554 0 5.425.907 10.925 5.297 3.65 2.913 6.748 5.297 6.883 5.297.135 0 3.775-1.62 8.087-3.6 4.313-1.982 9.917-4.216 12.453-4.967 5.469-1.618 6.53-3.685 6.53-12.725 0-7.656 2.187-13.344 5.635-14.653 1.405-.533 10.97-1.313 21.254-1.733 28.04-1.144 31.467.807 31.467 17.915 0 5.026.477 8.22 1.326 8.877.73.565 3.952 1.863 7.162 2.885 3.21 1.02 7.716 2.762 10.014 3.87 5.982 2.881 7.347 2.575 11.99-2.693 4.868-5.521 8.606-7.484 12.43-6.526 3.505.879 33.303 27.604 34.613 31.044 2.227 5.849 1.234 9.404-4.325 15.477-2.918 3.188-5.305 6.256-5.305 6.817 0 .561 2.643 6.573 5.873 13.36l5.874 12.338h5.832c6.866 0 12.234 1.987 14.643 5.421 1.464 2.087 1.73 5.829 1.73 24.295 0 21.268-.061 21.885-2.387 24.06-3.444 3.222-7.527 4.494-14.428 4.494h-6.067l-4.009 9.8a1936.706 1936.706 0 0 1-5.214 12.653c-1.122 2.655-.82 3.262 4.309 8.677 4.795 5.063 5.515 6.389 5.515 10.153 0 4.068-.767 5.15-12.714 17.94-6.993 7.486-13.797 14.308-15.12 15.16-6.403 4.123-11.434 3.31-18.678-3.018l-5.38-4.7-6.674 3.364c-3.67 1.85-9.54 4.438-13.046 5.752l-6.373 2.389-1.241 9.275c-1.02 7.625-1.733 9.767-4 12.034l-2.76 2.757-21.464.255c-17.506.208-21.996-.04-24.355-1.344zm40.324-53.472c28.689-6.867 50.459-28.443 57.659-57.145 1.84-7.338 2.15-11.038 1.726-20.659-.928-21.076-7.599-35.96-23.078-51.495-7.184-7.21-11.009-10.073-18.808-14.075-12.492-6.41-23.469-9.293-35.834-9.41-31.201-.295-61.297 21.295-72.86 52.27-2.809 7.52-3.39 10.754-3.816 21.226-.96 23.587 5.775 41.472 21.702 57.631 19.292 19.574 47.366 27.868 73.31 21.657zm-61.88-39.072c-14.432-6.546-15.966-25.889-2.744-34.585 11.57-7.609 27.42-1.696 30.74 11.467 4.198 16.647-12.274 30.249-27.996 23.118zm71.008-.036c-2.402-1.09-5.744-3.783-7.427-5.986-2.713-3.552-3.06-4.865-3.06-11.582 0-6.43.427-8.22 2.823-11.836 5.629-8.492 18.588-11.08 27.15-5.422 20.934 13.833 3.385 45.196-19.486 34.826zm-36.146-47.708c-9.124-4.136-13.336-16.076-9.07-25.708 3.143-7.093 8.514-10.72 16.642-11.237 8.331-.53 14.162 2.167 18.351 8.489 4.166 6.286 4.166 15.546 0 21.831-5.428 8.191-16.326 10.976-25.923 6.625zm-358.428 41.309c-9.316-2.32-18.1-8.796-21.828-16.092-2.609-5.106-2.714-21.457-.447-69.372 2.125-44.916 3.335-58.974 5.932-68.871 6.79-25.886 24.251-48.079 47.723-60.654 4.333-2.321 18.143-7.79 30.69-12.153 37.056-12.885 48.715-17.11 60.279-21.847l10.942-4.482 6.231 4.364c8.33 5.834 19.89 11.197 30.24 14.03 11.6 3.174 38.85 3.46 49.337.517 10.083-2.83 20.796-8.085 28.7-14.08l6.95-5.271 7.374 3.024c13.351 5.475 27.151 10.491 56.608 20.577 15.991 5.476 32.702 11.846 37.136 14.156 9.86 5.136 21.815 15.012 30.132 24.89l6.232 7.4-10.438.67c-5.74.369-17.257.726-25.591.794-10.2.084-16.295.601-18.645 1.582-8.678 3.62-15.838 13.486-17.194 23.692-.673 5.069-.897 5.368-4.9 6.566-3.646 1.09-5.121.943-11.287-1.13-9.022-3.033-16.512-3-22.923.098-5.54 2.678-31.168 26.357-36.283 33.524-4.326 6.06-6.168 12.832-5.356 19.681.572 4.824 2.248 8.219 7.45 15.092.53.701.222 2.837-.742 5.142-1.346 3.216-2.197 3.943-4.622 3.947-8.929.016-18.565 6.754-22.402 15.66-1.986 4.61-2.251 7.582-2.535 28.38-.279 20.506-.098 23.627 1.54 26.62 1.022 1.865 1.857 3.653 1.857 3.973 0 .895-216.54.474-220.16-.427zM499.865 320.3c-47.794-10.333-85.645-63.957-88.764-125.752-2.851-56.488 24.47-97.837 74.055-112.075 9.952-2.857 33.936-3.972 46.378-2.155 31.28 4.567 59.047 25.287 72.888 54.39 20.311 42.707 11.291 107.33-20.56 147.299-23.96 30.068-55.511 44.451-83.997 38.293zM795.53 673.95c-3.258 0-6.516.73-9.04 2.188l-80.578 46.541c-5.049 2.916-5.049 7.527 0 10.443l80.578 46.542c5.048 2.916 13.031 2.916 18.079 0l80.579-46.542c5.048-2.915 5.048-7.527 0-10.442l-80.58-46.542c-2.523-1.459-5.78-2.187-9.038-2.187zm.489 43.643a16.856 9.987 0 0 1 11.672 17.046 16.856 9.987 0 1 1-23.837-14.123 16.856 9.987 0 0 1 12.164-2.923zm-95.488 24.346c-3.035-.082-5.098 2.284-5.098 6.468v83.063c0 5.822 3.993 12.728 9.042 15.639l77.507 44.692c5.048 2.91 9.041.609 9.041-5.212v-83.065c0-5.821-3.993-12.726-9.041-15.638l-77.507-44.691c-1.42-.82-2.757-1.226-3.944-1.257zm190.311 0c-1.187.033-2.523.438-3.943 1.257l-77.51 44.691c-5.047 2.912-9.04 9.818-9.04 15.64v83.064c0 5.82 3.993 8.121 9.04 5.21l77.51-44.69c5.05-2.911 9.04-9.816 9.04-15.638v-83.065c0-4.183-2.062-6.548-5.097-6.467zm-183.123 11.55a16.46 9.495 58.018 0 1 17.84 21.693 16.46 9.495 58.018 1 1-23.738-13.684 16.46 9.495 58.018 0 1 5.898-8.008zm116.854 34.061a9.495 16.46 31.982 0 1 5.9 8.008 9.495 16.46 31.982 0 1-23.739 13.685 9.495 16.46 31.982 0 1 17.84-21.693zm-87.314 15.1a16.46 9.495 58.018 0 1 17.84 21.692 16.46 9.495 58.018 0 1-23.738-13.685 16.46 9.495 58.018 0 1 5.898-8.007zm146.396 15.475a9.495 16.46 31.982 0 1 5.898 8.008 9.495 16.46 31.982 0 1-23.738 13.685 9.495 16.46 31.982 0 1 17.84-21.693zm-116.854 34.06a16.46 9.495 58.018 0 1 17.84 21.692 16.46 9.495 58.018 1 1-23.739-13.684 16.46 9.495 58.018 0 1 5.899-8.008zM228.16 576.234c-3.264 0-6.726.823-9.034 2.156l-80.575 46.548c-2.308 1.334-3.742 3.334-3.742 5.218 0 1.886 1.419 3.885 3.726 5.218l80.591 46.549c2.308 1.333 5.77 2.156 9.034 2.156 3.264 0 6.742-.824 9.05-2.157l80.575-46.549c2.308-1.332 3.742-3.333 3.742-5.217 0-1.886-1.45-3.885-3.759-5.219l-80.575-46.548c-2.308-1.332-5.77-2.156-9.033-2.156zm0 6.501a16.855 9.987 0 0 1 12.165 2.93 16.855 9.987 0 0 1-23.837 14.122 16.855 9.987 0 0 1 10.98-17.036 16.855 9.987 0 0 1 .691-.016zm-95.309 61.518c-.79.024-1.515.211-2.127.563-1.632.941-2.655 3.183-2.655 5.844v83.057c0 2.661 1.023 6.082 2.655 8.905 1.632 2.822 4.074 5.41 6.382 6.74l77.513 44.695c2.307 1.331 4.763 1.567 6.394.626 1.632-.94 2.642-3.19 2.642-5.852v-83.055c0-2.661-1.009-6.074-2.641-8.896-1.632-2.824-4.087-5.402-6.395-6.733l-77.513-44.696c-1.443-.832-2.939-1.239-4.255-1.198zm190.938.008c-1.32-.044-2.82.36-4.264 1.192l-77.498 44.686c-2.308 1.331-4.763 3.927-6.395 6.75l-.043.074c-1.608 2.808-2.599 6.168-2.599 8.807v83.072c0 2.661 1.01 4.911 2.642 5.852 1.632.94 4.087.688 6.395-.642l77.498-44.687c2.308-1.332 4.763-3.91 6.396-6.733 1.632-2.823 2.655-6.243 2.655-8.905v-83.074c0-2.66-1.024-4.885-2.655-5.825-.612-.353-1.34-.542-2.133-.567zm-7.502 11.484a9.495 16.46 31.982 0 1 5.899 8.007 9.495 16.46 31.982 0 1-23.738 13.684 9.495 16.46 31.982 0 1 17.84-21.691zm-88.128 1.207a16.855 9.987 0 0 1 12.166 2.93 16.855 9.987 0 0 1-23.837 14.123 16.855 9.987 0 0 1 10.98-17.036 16.855 9.987 0 0 1 .691-.016zm-58.264 47.951a16.46 9.495 58.018 0 1 17.839 21.692 16.46 9.495 58.018 0 1-23.738-13.684 16.46 9.495 58.018 0 1 5.899-8.008zm116.853 0a9.495 16.46 31.982 0 1 .001 0 9.495 16.46 31.982 0 1 5.898 8.008 9.495 16.46 31.982 0 1-23.738 13.684 9.495 16.46 31.982 0 1 17.84-21.692zm-29.54 49.534a9.495 16.46 31.982 0 1 5.898 8.008 9.495 16.46 31.982 0 1-23.737 13.684 9.495 16.46 31.982 0 1 17.839-21.692zm216.947-42.139c-3.257 0-6.516.729-9.04 2.187l-80.578 46.542c-5.048 2.916-5.048 7.527 0 10.443l80.578 46.541c5.049 2.916 13.032 2.916 18.08 0l80.578-46.541c5.048-2.916 5.048-7.527 0-10.443l-80.579-46.542c-2.524-1.459-5.781-2.187-9.039-2.187zm-61.883 43.513a16.856 9.987 0 0 1 11.181 2.916 16.856 9.987 0 0 1-23.838 14.123 16.856 9.987 0 0 1 12.656-17.039zm62.372.129a16.856 9.987 0 0 1 11.672 17.046 16.856 9.987 0 1 1-23.837-14.123 16.856 9.987 0 0 1 12.164-2.923zm63.124.008a16.856 9.987 0 0 1 11.181 2.915 16.856 9.987 0 0 1-23.838 14.123 16.856 9.987 0 0 1 12.657-17.038zm-158.612 24.338c-3.034-.082-5.098 2.284-5.098 6.468v83.063c0 5.822 3.994 12.728 9.042 15.639l77.507 44.692c5.048 2.91 9.041.609 9.041-5.212V841.87c0-5.821-3.993-12.726-9.041-15.637L383.1 781.542c-1.42-.819-2.756-1.226-3.944-1.257zm190.311 0c-1.187.033-2.523.438-3.942 1.257l-77.51 44.691c-5.048 2.912-9.041 9.818-9.041 15.64v83.064c0 5.82 3.993 8.122 9.041 5.21l77.51-44.69c5.049-2.911 9.04-9.816 9.04-15.638v-83.065c0-4.183-2.062-6.548-5.098-6.467zm-124.041 45.611a16.46 9.495 58.018 0 1 17.839 21.693 16.46 9.495 58.018 1 1-23.738-13.685 16.46 9.495 58.018 0 1 5.899-8.008zm87.315 15.1a9.495 16.46 31.982 0 1 5.898 8.008 9.495 16.46 31.982 0 1-23.738 13.684 9.495 16.46 31.982 0 1 17.84-21.692zm-146.396 15.475a16.46 9.495 58.018 0 1 17.839 21.693 16.46 9.495 58.018 1 1-23.738-13.685 16.46 9.495 58.018 0 1 5.899-8.008z" />
</svg>