<svg xmlns="http://www.w3.org/2000/svg" viewBox="0 0 512 512">
	<path
		d="M256 86.6c-50.3 0-73.53 9.558-84.218 21.583-9.306 10.469-10.66 24.679-10.872 40.817h24.35c1.306-11.17 5.846-21.152 15.55-27.614C212.562 113.56 229.802 110.6 256 110.6c26.202 0 43.449 2.991 55.197 10.832 9.692 6.467 14.23 16.437 15.54 27.568h24.353c-.212-16.138-1.566-30.348-10.872-40.817C329.53 96.158 306.3 86.6 256 86.6zm-108 75.2v12.8h49.6v-12.8H148zm166.4 0v12.8H364v-12.8h-49.6zM116.376 189c-11.093 0-22.586 5.47-31.176 13.93s-14 19.67-14 30.07v153.6c0 11.6 2.788 19.003 7.496 23.706 4.706 4.702 12.128 7.494 23.754 7.494h307.51c11.402 0 18.706-2.77 23.375-7.474 4.67-4.702 7.465-12.126 7.465-23.726V233c0-10.4-5.422-21.64-13.89-30.11-8.47-8.468-19.71-13.89-30.11-13.89H116.376zM230.4 233h51.2v51.2h51.2v51.2h-51.2v51.2h-51.2v-51.2h-51.2v-51.2h51.2V233z" />
</svg>
